<?xml version="1.0" standalone="no"?>
<!DOCTYPE svg PUBLIC "-//W3C//DTD SVG 20010904//EN"
 "http://www.w3.org/TR/2001/REC-SVG-20010904/DTD/svg10.dtd">
<svg version="1.0" xmlns="http://www.w3.org/2000/svg"
 width="1350.000000pt" height="759.000000pt" viewBox="0 0 1350.000000 759.000000"
 preserveAspectRatio="xMidYMid meet">
<metadata>
Created by potrace 1.10, written by Peter Selinger 2001-2011
</metadata>
<g transform="translate(0.000000,759.000000) scale(0.100000,-0.100000)"
fill="#000000" stroke="none">
<path d="M0 3795 l0 -3795 6750 0 6750 0 0 3795 0 3795 -6750 0 -6750 0 0
-3795z m295 3475 c3 -5 1 -19 -6 -31 -10 -19 -12 -20 -26 -6 -9 9 -13 23 -10
31 7 18 32 21 42 6z m3689 -16 c8 -20 -1 -34 -20 -34 -8 0 -14 10 -14 25 0 28
24 34 34 9z m5366 -129 c0 -12 -17 -38 -38 -58 -36 -35 -41 -37 -68 -27 -32
13 -73 57 -74 80 0 25 29 59 68 79 l37 19 38 -36 c20 -20 37 -45 37 -57z
m-4800 -16 c0 -24 -23 -21 -28 4 -2 10 3 17 12 17 10 0 16 -9 16 -21z m-3545
-159 c0 -20 -6 -26 -26 -28 -28 -3 -43 16 -32 44 3 9 15 14 32 12 20 -2 26 -8
26 -28z m7547 -27 c24 -22 23 -35 -7 -63 -23 -22 -25 -22 -50 -6 -29 19 -34
60 -7 75 25 15 43 13 64 -6z m1937 -7 c9 -11 10 -20 1 -36 -10 -19 -13 -20
-33 -7 -39 25 -33 47 14 56 4 0 12 -5 18 -13z m-8845 -83 c7 -18 -14 -37 -27
-24 -9 9 1 41 13 41 4 0 11 -8 14 -17z m-1550 -719 c25 -10 19 -33 -10 -40
-28 -7 -46 9 -37 33 6 14 22 17 47 7z m4216 -80 c0 -9 -7 -14 -17 -12 -25 5
-28 28 -4 28 12 0 21 -6 21 -16z m8850 -39 c0 -8 -4 -15 -10 -15 -5 0 -10 7
-10 15 0 8 5 15 10 15 6 0 10 -7 10 -15z m-7578 -242 c17 -15 17 -17 2 -35
-21 -23 -33 -23 -50 0 -10 14 -10 20 3 35 20 21 22 21 45 0z m-3972 -52 c0
-27 -19 -36 -37 -18 -18 18 -9 37 18 37 12 0 19 -7 19 -19z m7350 -27 c0 -8
-9 -14 -20 -14 -22 0 -28 26 -7 33 16 6 27 -1 27 -19z m481 -59 c0 -5 -9 -11
-21 -13 -20 -3 -27 8 -13 22 10 9 34 3 34 -9z m297 -146 c-2 -6 -8 -10 -13
-10 -5 0 -11 4 -13 10 -2 6 4 11 13 11 9 0 15 -5 13 -11z m3362 -125 c0 -14
-21 -19 -33 -7 -9 9 13 34 24 27 5 -3 9 -12 9 -20z m-8760 -30 c0 -17 -22 -14
-28 4 -2 7 3 12 12 12 9 0 16 -7 16 -16z m-1120 -334 c0 -5 -6 -10 -14 -10 -8
0 -18 5 -21 10 -3 6 3 10 14 10 12 0 21 -4 21 -10z m1388 -141 c-2 -6 -8 -10
-13 -10 -5 0 -11 4 -13 10 -2 6 4 11 13 11 9 0 15 -5 13 -11z m-3480 -106 c-4
-22 -22 -20 -26 1 -2 10 3 16 13 16 10 0 15 -7 13 -17z m7107 -183 c-5 -8 -11
-8 -17 -2 -6 6 -7 16 -3 22 5 8 11 8 17 2 6 -6 7 -16 3 -22z m4760 10 c-3 -5
-13 -10 -21 -10 -8 0 -14 5 -14 10 0 6 9 10 21 10 11 0 17 -4 14 -10z m-3165
-31 c0 -5 -7 -9 -15 -9 -15 0 -20 12 -9 23 8 8 24 -1 24 -14z m-2970 -54 c0
-8 -7 -15 -15 -15 -8 0 -15 7 -15 15 0 8 7 15 15 15 8 0 15 -7 15 -15z m1051
-308 c-5 -5 -17 -7 -26 -3 -14 5 -15 9 -5 21 10 12 16 13 27 4 9 -8 10 -16 4
-22z m4370 -50 c-1 -12 -15 -9 -19 4 -3 6 1 10 8 8 6 -3 11 -8 11 -12z
m-10341 -188 c0 -5 -7 -9 -15 -9 -15 0 -20 12 -9 23 8 8 24 -1 24 -14z m420
-83 c0 -2 -3 -12 -6 -20 -5 -13 -9 -14 -20 -5 -20 16 -17 29 6 29 11 0 20 -2
20 -4z m10860 -82 c0 -8 -7 -14 -15 -14 -15 0 -21 21 -9 33 10 9 24 -2 24 -19z
m-4590 -684 c0 -11 -7 -20 -15 -20 -17 0 -18 2 -9 24 9 23 24 20 24 -4z
m-5447 -72 c6 -18 -11 -48 -27 -48 -15 0 -25 27 -19 48 3 6 13 12 23 12 10 0
20 -6 23 -12z m5061 -10 c14 -20 14 -24 -1 -40 -34 -38 -86 -9 -65 37 14 31
46 32 66 3z m4976 -242 c-13 -13 -35 7 -25 24 5 8 11 8 21 -1 10 -8 12 -15 4
-23z m-2448 -43 c25 -22 23 -41 -7 -55 -22 -10 -29 -9 -45 8 -18 18 -19 21 -4
42 18 26 31 28 56 5z m-3446 -4 c9 -16 -18 -30 -33 -17 -7 6 -10 14 -7 19 7
13 31 11 40 -2z m-1136 -194 c0 -8 -4 -15 -10 -15 -5 0 -10 7 -10 15 0 8 5 15
10 15 6 0 10 -7 10 -15z m1908 -36 c11 -18 11 -24 -4 -40 -22 -24 -25 -24 -53
2 -21 20 -21 22 -5 40 22 25 46 24 62 -2z m-7688 -44 c0 -8 -7 -15 -15 -15 -8
0 -15 7 -15 15 0 8 7 15 15 15 8 0 15 -7 15 -15z m810 -126 c0 -5 -7 -9 -15
-9 -15 0 -20 12 -9 23 8 8 24 -1 24 -14z m5211 -51 c11 -21 -3 -32 -30 -23
-24 7 -37 55 -19 66 13 8 28 -5 49 -43z m2227 -20 c20 -20 14 -46 -14 -64 -22
-15 -27 -15 -35 -3 -14 23 -10 57 9 68 22 13 26 13 40 -1z m-3797 -178 c27
-15 24 -54 -5 -69 -19 -11 -27 -10 -45 0 -25 17 -28 54 -3 68 22 13 29 13 53
1z m-4173 -262 c-6 -18 -28 -21 -28 -4 0 9 7 16 16 16 9 0 14 -5 12 -12z
m3333 -58 c10 -6 19 -19 19 -30 0 -24 -29 -40 -73 -40 -48 0 -51 8 -14 45 37
37 41 39 68 25z m6766 -306 c-9 -9 -28 6 -21 18 4 6 10 6 17 -1 6 -6 8 -13 4
-17z m-2157 -138 c0 -8 -4 -17 -8 -20 -13 -8 -35 11 -28 23 10 16 36 14 36 -3z
m-275 -61 c0 -22 -31 -33 -47 -17 -17 17 -1 44 24 40 15 -2 23 -10 23 -23z
m3481 14 c10 -17 -13 -36 -27 -22 -12 12 -4 33 11 33 5 0 12 -5 16 -11z
m-1581 -248 c3 -5 1 -13 -5 -16 -15 -9 -43 3 -35 15 8 13 32 13 40 1z m-4423
-66 c0 -5 -5 -11 -11 -13 -6 -2 -11 4 -11 13 0 9 5 15 11 13 6 -2 11 -8 11
-13z m2321 -18 c9 -23 -8 -40 -32 -32 -35 11 -24 41 15 44 7 1 14 -5 17 -12z
m-1055 -8 c-2 -6 -8 -10 -13 -10 -5 0 -11 4 -13 10 -2 6 4 11 13 11 9 0 15 -5
13 -11z m3552 -44 c0 -8 -7 -15 -15 -15 -16 0 -20 12 -8 23 11 12 23 8 23 -8z
m-1872 -67 c15 -15 16 -55 1 -63 -5 -4 -21 -4 -35 -1 -29 8 -34 49 -6 65 22
13 26 13 40 -1z m3809 -264 c-9 -9 -28 6 -21 18 4 6 10 6 17 -1 6 -6 8 -13 4
-17z m-6027 -113 c0 -11 -5 -23 -11 -27 -15 -9 -33 12 -26 30 9 23 37 20 37
-3z m-1856 -92 c-8 -14 -24 -10 -24 6 0 9 6 12 15 9 8 -4 12 -10 9 -15z
m-1139 -29 c9 -28 -12 -60 -39 -60 -27 0 -37 24 -25 58 11 29 55 30 64 2z
m-1479 -81 c10 -17 -13 -36 -27 -22 -12 12 -4 33 11 33 5 0 12 -5 16 -11z
m8432 -182 c3 -12 -3 -17 -21 -17 -31 0 -40 10 -25 27 15 18 42 12 46 -10z"/>
</g>
</svg>
